<?xml version="1.0" standalone="no"?>
<!DOCTYPE svg PUBLIC "-//W3C//DTD SVG 20010904//EN"
 "http://www.w3.org/TR/2001/REC-SVG-20010904/DTD/svg10.dtd">
<svg version="1.0" xmlns="http://www.w3.org/2000/svg"
 width="269.000000pt" height="269.000000pt" viewBox="0 0 269.000000 269.000000"
 preserveAspectRatio="xMidYMid meet">
<metadata>
Created by potrace 1.14, written by Peter Selinger 2001-2017
</metadata>
<g transform="translate(0.000000,269.000000) scale(0.100000,-0.100000)"
fill="#000000" stroke="none">
<path d="M1070 1950 l0 -390 -535 0 -535 0 0 -140 0 -140 535 0 535 0 0 -360
0 -360 -102 0 c-553 -2 -908 -6 -913 -12 -12 -11 5 -66 23 -73 9 -3 557 -6
1217 -6 1130 0 1200 1 1212 17 10 14 13 200 13 900 0 972 4 914 -61 914 l-29
0 0 -370 0 -370 -540 0 -540 0 0 390 0 390 -140 0 -140 0 0 -390z m1360 -1030
l0 -360 -57 0 c-105 -1 -846 -1 -935 0 l-88 0 0 360 0 360 540 0 540 0 0 -360z"/>
<path d="M1811 1071 c5 -20 9 -49 9 -64 0 -28 -1 -28 -47 -22 -27 4 -56 9 -66
12 -15 4 -17 0 -11 -21 9 -37 9 -67 1 -100 -9 -31 -10 -31 97 -10 l29 6 -6
-68 -7 -69 75 0 c59 0 74 3 70 13 -3 8 -8 39 -12 69 l-6 56 39 -6 c21 -4 54
-10 73 -13 32 -7 33 -6 25 17 -10 30 -11 66 -1 103 8 28 8 28 -28 22 -115 -20
-105 -21 -105 10 0 16 4 45 9 64 l8 35 -77 1 -77 1 8 -36z"/>
<path d="M461 2150 c0 -8 4 -37 8 -63 l8 -48 -68 7 -68 6 10 -36 c7 -24 7 -48
0 -72 l-10 -36 56 7 c31 4 63 9 71 12 11 5 13 0 9 -23 -3 -16 -8 -50 -12 -76
l-6 -46 36 11 c26 8 48 8 77 0 l40 -11 -6 32 c-4 17 -10 51 -13 75 -6 43 -5
44 18 38 13 -3 45 -9 71 -12 l47 -7 -9 32 c-6 20 -6 49 0 74 5 22 8 41 7 42
-1 1 -22 -2 -47 -6 -25 -5 -56 -9 -69 -10 -22 0 -23 2 -17 43 4 23 9 51 12 62
5 19 0 20 -71 20 -60 0 -75 -3 -74 -15z"/>
<path d="M1811 2130 c5 -19 9 -48 9 -63 l0 -29 -65 7 c-36 4 -65 6 -65 4 0 -2
4 -18 9 -36 5 -18 6 -48 1 -68 l-8 -37 55 7 c31 4 61 9 68 11 8 4 10 -9 4 -48
-14 -96 -13 -99 19 -87 15 6 48 8 73 5 l46 -6 -8 42 c-4 24 -8 56 -9 72 0 24
3 27 23 23 12 -3 43 -9 69 -12 l47 -7 -10 36 c-7 24 -7 48 0 73 6 20 9 38 8
39 -1 1 -22 -2 -47 -6 -25 -5 -56 -9 -69 -10 -23 0 -23 2 -18 48 3 26 8 54 11
62 5 13 -7 15 -72 15 l-79 1 8 -36z"/>
<path d="M465 1060 c3 -25 9 -53 12 -64 5 -17 1 -18 -48 -11 -30 3 -62 9 -72
12 -15 4 -18 1 -13 -16 3 -12 9 -30 12 -41 3 -10 1 -36 -5 -56 l-10 -36 37 6
c20 3 52 8 70 12 l33 7 -5 -37 c-3 -20 -8 -51 -11 -68 l-5 -33 75 0 c74 0 76
1 70 23 -3 12 -8 43 -12 69 l-6 46 39 -6 c21 -4 54 -10 73 -13 32 -7 33 -6 25
17 -10 30 -10 54 -1 98 7 33 7 33 -25 27 -18 -4 -51 -9 -72 -13 l-39 -6 6 44
c4 24 9 53 12 64 6 19 1 20 -70 20 l-77 1 7 -46z"/>
</g>
</svg>
